<svg width="139" height="27" viewBox="0 0 139 27" fill="none" xmlns="http://www.w3.org/2000/svg">
<mask id="mask0_2011_5583" style="mask-type:luminance" maskUnits="userSpaceOnUse" x="0" y="0" width="139" height="27">
<path d="M138.858 0V26.9959H0V0H138.858Z" fill="white"/>
</mask>
<g mask="url(#mask0_2011_5583)">
<path d="M98.2864 25.828H97.2164L97.6311 24.7635C97.7099 24.5696 97.7265 24.5077 97.7597 24.4087C97.7929 24.5077 97.8177 24.5902 97.8841 24.7594L98.2864 25.828ZM97.1293 26.0714H98.3734L98.7011 26.9461H98.9914L97.8882 24.058H97.6228L96.5155 26.9461H96.8017L97.1293 26.0714ZM92.1113 24.289H92.8495C93.0301 24.2748 93.2116 24.3016 93.3803 24.3674C93.4741 24.4085 93.553 24.4772 93.6064 24.5643C93.6598 24.6513 93.6851 24.7525 93.6789 24.8543C93.6847 24.9565 93.6594 25.0582 93.6061 25.1458C93.5528 25.2334 93.4741 25.303 93.3803 25.3453C93.2112 25.4095 93.0301 25.4363 92.8495 25.4237H92.1072L92.1113 24.289ZM92.8951 25.663C93.1382 25.681 93.3814 25.6295 93.596 25.5144C93.7064 25.4433 93.7971 25.3459 93.86 25.2309C93.9228 25.116 93.9557 24.9872 93.9557 24.8564C93.9557 24.7255 93.9228 24.5967 93.86 24.4818C93.7971 24.3668 93.7064 24.2694 93.596 24.1983C93.3814 24.0832 93.1382 24.0317 92.8951 24.0497H91.8251V26.9379H92.0989V25.663H92.8951ZM88.5033 24.4252C88.3864 24.2804 88.2369 24.165 88.0669 24.0883C87.8969 24.0116 87.7111 23.9758 87.5246 23.9837C86.9481 23.9837 86.5459 24.3138 86.5459 24.7635C86.5459 25.2834 86.9191 25.4278 87.3504 25.5186L87.7154 25.6011C88.1301 25.6919 88.3374 25.828 88.3374 26.1416C88.3374 26.4551 88.0513 26.7481 87.5536 26.7481C87.3588 26.7592 87.1654 26.709 87.0009 26.6045C86.8364 26.5001 86.7091 26.3468 86.6371 26.1663L86.3966 26.3231C86.5014 26.5335 86.6664 26.7083 86.8708 26.8257C87.0751 26.9432 87.3098 26.998 87.5453 26.9833C88.213 26.9833 88.6236 26.6202 88.6236 26.1251C88.6236 25.63 88.3125 25.4608 87.7942 25.3494L87.4043 25.2628C87.0228 25.1802 86.8196 25.0647 86.8196 24.7429C86.8196 24.4211 87.1099 24.2272 87.5038 24.2272C87.6544 24.2232 87.8036 24.2556 87.9387 24.3218C88.0738 24.3879 88.1907 24.4857 88.2794 24.6067L88.5033 24.4252ZM78.4258 25.0606C78.29 24.9307 78.206 24.7563 78.1894 24.5696C78.1885 24.5195 78.1983 24.4698 78.2183 24.4238C78.2383 24.3778 78.268 24.3367 78.3053 24.303C78.3426 24.2694 78.3868 24.2441 78.4347 24.2289C78.4827 24.2137 78.5334 24.2089 78.5834 24.2148C78.6346 24.2106 78.6861 24.2173 78.7345 24.2346C78.7828 24.2518 78.8269 24.2791 78.8638 24.3146C78.9007 24.3502 78.9296 24.3931 78.9484 24.4407C78.9673 24.4882 78.9758 24.5392 78.9732 24.5902C78.96 24.719 78.9106 24.8415 78.8307 24.9437C78.7507 25.0459 78.6435 25.1236 78.5212 25.1679C78.5212 25.1679 78.4756 25.1142 78.4341 25.0565M79.1516 26.3396C79.0795 26.4637 78.9763 26.5671 78.8519 26.6394C78.7276 26.7117 78.5864 26.7506 78.4424 26.7522C78.3627 26.7573 78.2828 26.7461 78.2075 26.7195C78.1322 26.6928 78.0632 26.6512 78.0047 26.5971C77.9461 26.5431 77.8992 26.4778 77.8668 26.4051C77.8344 26.3325 77.8171 26.2541 77.8162 26.1746C77.8162 25.8115 78.1065 25.6341 78.4217 25.4608L79.1516 26.3396ZM79.6617 26.9296H79.9934L79.4501 26.3066C79.5657 26.0896 79.6455 25.8556 79.6865 25.6135L79.4543 25.5474C79.4201 25.7387 79.3645 25.9255 79.2884 26.1044L78.6539 25.3411C78.8165 25.2786 78.9582 25.1721 79.063 25.0335C79.1678 24.8949 79.2316 24.73 79.2469 24.5572C79.2452 24.4759 79.2264 24.3959 79.1917 24.3223C79.157 24.2487 79.1071 24.1832 79.0454 24.1299C78.9837 24.0767 78.9114 24.0369 78.8332 24.0131C78.7551 23.9894 78.6728 23.9822 78.5917 23.992C78.5093 23.9846 78.4262 23.9941 78.3476 24.0197C78.269 24.0453 78.1964 24.0866 78.1343 24.141C78.0722 24.1955 78.0219 24.2619 77.9865 24.3363C77.9511 24.4107 77.9312 24.4915 77.9282 24.5737C77.9422 24.7986 78.0346 25.0116 78.1894 25.1761L78.2848 25.2834C77.8701 25.4938 77.5466 25.7249 77.5466 26.1993C77.5525 26.3078 77.5797 26.414 77.6269 26.5119C77.6741 26.6098 77.7402 26.6975 77.8215 26.7699C77.9028 26.8424 77.9976 26.8981 78.1006 26.934C78.2036 26.9699 78.3127 26.9853 78.4217 26.9791C78.5948 26.9832 78.7661 26.9438 78.9198 26.8644C79.0735 26.7851 79.2046 26.6684 79.3009 26.5253L79.6617 26.9296ZM70.7329 24.4211C70.6169 24.2764 70.4681 24.1609 70.2988 24.0842C70.1294 24.0075 69.9442 23.9717 69.7583 23.9796C69.1777 23.9796 68.7755 24.3097 68.7755 24.7594C68.7755 25.2793 69.1487 25.4237 69.58 25.5144L69.945 25.597C70.3597 25.6877 70.567 25.8239 70.567 26.1375C70.567 26.451 70.2809 26.744 69.7832 26.744C69.5884 26.7551 69.395 26.7048 69.2305 26.6004C69.066 26.496 68.9387 26.3427 68.8667 26.1622L68.6262 26.319C68.7313 26.53 68.8969 26.7053 69.1021 26.8228C69.3073 26.9403 69.5429 26.9947 69.7791 26.9791C70.4468 26.9791 70.8532 26.6161 70.8532 26.1209C70.8532 25.6258 70.5463 25.4567 70.0238 25.3453L69.6339 25.2586C69.2482 25.1761 69.045 25.0606 69.045 24.7388C69.045 24.4169 69.3353 24.223 69.7293 24.223C69.8798 24.219 70.029 24.2515 70.1641 24.3176C70.2992 24.3837 70.4162 24.4816 70.5048 24.6026L70.7329 24.4211ZM65.5988 24.4211C65.4819 24.2763 65.3324 24.1609 65.1624 24.0842C64.9923 24.0075 64.8066 23.9717 64.6201 23.9796C64.0436 23.9796 63.6413 24.3097 63.6413 24.7594C63.6413 25.2793 64.0146 25.4237 64.4459 25.5144L64.8108 25.597C65.2255 25.6877 65.4287 25.8239 65.4287 26.1375C65.4287 26.451 65.1467 26.744 64.6449 26.744C64.4507 26.7548 64.2579 26.7044 64.0941 26.6C63.9303 26.4955 63.8038 26.3423 63.7326 26.1622L63.492 26.319C63.5969 26.5293 63.7619 26.7042 63.9662 26.8216C64.1706 26.939 64.4053 26.9938 64.6408 26.9791C65.3085 26.9791 65.719 26.6161 65.719 26.1209C65.719 25.6258 65.408 25.4567 64.8896 25.3453L64.4998 25.2586C64.1141 25.1761 63.9151 25.0606 63.9151 24.7388C63.9151 24.4169 64.2053 24.223 64.5993 24.223C64.7498 24.219 64.8991 24.2515 65.0342 24.3176C65.1693 24.3837 65.2862 24.4816 65.3748 24.6026L65.5988 24.4211ZM60.6886 26.6903H58.9634V25.5805H60.4481V25.337H58.9634V24.289H60.6015V24.0497H58.6938V26.9379H60.6886V26.6903ZM53.3772 24.0332H53.1077V26.9214H53.3772V24.4458C53.4491 24.5896 53.5323 24.7276 53.6261 24.8584L55.1024 26.9626H55.372V24.0745H55.1024V26.55C55.0306 26.4079 54.9503 26.2701 54.8619 26.1375L53.3772 24.0332ZM47.9528 24.2725H48.8818V26.9296H49.1513V24.289H50.0844V24.0497H47.9528V24.2725ZM44.9296 24.0332H44.66V26.9214H44.9296V24.0332ZM40.0982 26.9214V25.5805H41.5455V25.3453H40.0982V24.289H41.6989V24.0497H39.812V26.9379L40.0982 26.9214Z" fill="white"/>
<path d="M137.85 4.0599V0.346577H123.75V19.3918H137.85V15.6372H127.963V11.5113H136.299V7.79798H127.963V4.0599H137.85ZM112.955 19.3918L116.023 8.7717C116.587 6.86553 117.18 3.89899 117.18 3.89899C117.093 5.01711 116.811 10.5005 116.811 13.2277V19.3918H120.867V0.334199H114.783L112.167 9.77842C111.557 11.8496 111.142 14.3995 111.142 14.3995H111.113C111.113 14.3995 110.661 11.8496 110.101 9.77842L107.613 0.334199H101.268V19.3918H105.336V13.1658C105.336 10.5912 105.137 4.87271 105.083 3.86598C105.083 3.86598 105.643 6.46944 106.095 8.23533L108.911 19.3753L112.955 19.3918ZM84.9906 9.86094C84.9906 5.88356 86.7945 3.47402 90.0044 3.47402C93.2143 3.47402 95.0183 5.88356 95.0183 9.86094C95.0183 13.8383 93.2433 16.1653 89.992 16.1653C86.7406 16.1653 84.9781 13.8383 84.9781 9.86094M80.7273 9.86094C80.7398 15.6785 84.186 19.726 89.992 19.726C95.9058 19.726 99.2566 15.6909 99.2566 9.86094C99.2566 4.03102 95.6652 0 89.992 0C84.3187 0 80.7273 4.00627 80.7273 9.86094ZM76.236 13.5743C75.448 15.2865 74.0422 16.1818 72.0142 16.1818C68.8044 16.1818 67.0377 13.8548 67.0377 9.87745C67.0377 5.90006 68.8375 3.49053 72.0142 3.49053C74.0878 3.49053 75.5351 4.49725 76.3231 6.37867L79.8689 4.89334C78.7284 2.29814 76.2235 0 71.9686 0C66.4198 0 62.8159 4.00627 62.8159 9.86094C62.8159 15.7156 66.2539 19.726 71.9686 19.726C75.8296 19.726 78.3054 18.0138 79.7403 15.2123L76.236 13.5743Z" fill="white"/>
<path d="M17.6126 19.4821H16.8246L13.5318 7.2488C13.1876 6.01103 12.3292 2.80519 11.985 1.40238C11.649 2.76393 10.7823 6.04816 10.4671 7.27768L7.22821 19.4821H6.44441L6.41538 19.3914L0.970215 0.337891H1.68767L1.7167 0.432787L5.70207 14.3743C5.79746 14.6961 5.90528 15.0592 6.01311 15.4387C6.32 16.4785 6.65591 17.6255 6.84253 18.3888C7.08306 17.3903 7.53095 15.6739 7.88346 14.3743L11.6159 0.346142H12.3748L16.1735 14.4031C16.5592 15.7936 17.003 17.51 17.2228 18.4218C17.4633 17.4563 17.9278 15.7523 18.2969 14.4568L22.0583 0.337891H22.7509L17.6126 19.4821ZM36.2746 19.4821H24.2687V0.337891H35.694V0.989786H24.953V9.24162H34.6987V9.90177H24.953V18.8303H36.2746V19.4821ZM49.9269 19.4821H38.4187V0.337891H39.0988V18.8303H49.9269V19.4821ZM62.9655 19.4821H51.4572V0.337891H52.1415V18.8303H62.9655V19.4821Z" fill="white"/>
<path d="M0.928711 24.2402H36.1585" stroke="white" stroke-width="0.75"/>
<path d="M0.928711 24.6318H36.1585" stroke="white" stroke-width="0.25"/>
<path d="M101.608 24.2402H137.929" stroke="white" stroke-width="0.75"/>
<path d="M101.608 24.6318H137.929" stroke="white" stroke-width="0.25"/>
</g>
</svg>
