<svg width="80" height="80" viewBox="0 0 80 80" fill="none" xmlns="http://www.w3.org/2000/svg">
<g clip-path="url(#clip0_1146_3501)">
<path d="M79.3707 68.5243H71.9926V25.072C71.9926 23.1091 70.8747 21.5031 68.8625 21.5031H52.094V3.56897C52.094 1.60604 50.4842 0 48.472 0H22.1344C20.1669 0 18.5571 1.60604 18.5571 3.56897V11.153H12.118C10.1505 11.153 8.54074 12.7591 8.54074 14.722V68.5243H1.20733C0.536591 68.5243 0 69.0596 0 69.7288C0 70.398 0.536591 70.9333 1.20733 70.9333H79.4154C80.0415 70.9333 80.5333 70.3534 80.5333 69.7288C80.4886 69.1042 79.952 68.5243 79.3707 68.5243ZM24.9068 68.5243H19.3173V58.5758H24.9068V68.5243ZM33.2686 68.5243H27.4108V57.3266C27.4108 56.7021 26.8743 56.2113 26.2929 56.2113H18.0652C17.4392 56.2113 16.9473 56.7467 16.9473 57.3266V68.5689H10.9107V14.4543C10.9107 13.7405 11.492 13.1606 12.2522 13.1606H32.0166C32.732 13.1606 33.3581 13.7405 33.3581 14.4543L33.2686 68.5243ZM31.9272 11.153H20.5246V3.70281C20.5246 2.98901 21.1059 2.40906 21.8661 2.40906H48.8298C49.5452 2.40906 50.1712 2.98901 50.1712 3.70281V12.3576H34.5207C33.8499 11.6438 32.9109 11.153 31.9272 11.153ZM50.0818 14.3651V20.7447H35.3256V14.3651H50.0818ZM43.285 68.9258H35.3256V40.6417H43.3297C43.285 40.6417 43.285 68.9258 43.285 68.9258ZM43.285 38.2772H35.3256V31.8977H43.3297C43.285 31.8977 43.285 38.2772 43.285 38.2772ZM43.285 24.9382V29.4886H35.3256V23.1091H43.8216C43.5086 23.6444 43.285 24.269 43.285 24.9382ZM70.0698 68.5243H45.3419V24.8044C45.3419 24.0906 45.9232 23.5106 46.6834 23.5106H68.8178C69.5332 23.5106 70.1592 24.0906 70.1592 24.8044L70.0698 68.5243Z" fill="white"/>
<path d="M24.2361 17.9346H19.9434C19.5857 17.9346 19.3174 18.2022 19.3174 18.5591V22.8419C19.3174 23.1988 19.5857 23.4665 19.9434 23.4665H24.2808C24.6386 23.4665 24.9069 23.1988 24.9069 22.8419V18.5591C24.9069 18.2469 24.5939 17.9346 24.2361 17.9346Z" fill="white"/>
<path d="M24.2808 27.0791H19.9434C19.5857 27.0791 19.3174 27.3468 19.3174 27.7037V31.9864C19.3174 32.3433 19.5857 32.611 19.9434 32.611H24.2808C24.6386 32.611 24.9069 32.3433 24.9069 31.9864V27.7037C24.9069 27.3914 24.6386 27.0791 24.2808 27.0791Z" fill="white"/>
<path d="M24.2808 36.2695H19.9434C19.5857 36.2695 19.3174 36.5372 19.3174 36.8941V41.1769C19.3174 41.5338 19.5857 41.8014 19.9434 41.8014H24.2808C24.6386 41.8014 24.9069 41.5338 24.9069 41.1769V36.8495C24.9069 36.5818 24.6386 36.2695 24.2808 36.2695Z" fill="white"/>
<path d="M24.2808 45.415H19.9434C19.5857 45.415 19.3174 45.6827 19.3174 46.0396V50.3224C19.3174 50.6793 19.5857 50.9469 19.9434 50.9469H24.2808C24.6386 50.9469 24.9069 50.6793 24.9069 50.3224V46.0396C24.9069 45.7273 24.6386 45.415 24.2808 45.415Z" fill="white"/>
<path d="M64.6593 29.0869H60.3218C59.9641 29.0869 59.6958 29.3546 59.6958 29.7115V33.9943C59.6958 34.3511 59.9641 34.6188 60.3218 34.6188H64.6593C65.017 34.6188 65.2853 34.3511 65.2853 33.9943V29.6669C65.33 29.3546 65.017 29.0869 64.6593 29.0869Z" fill="white"/>
<path d="M55.4478 29.0869H51.1104C50.7527 29.0869 50.4844 29.3546 50.4844 29.7115V33.9943C50.4844 34.3511 50.7527 34.6188 51.1104 34.6188H55.4478C55.8056 34.6188 56.0739 34.3511 56.0739 33.9943V29.7115C56.1186 29.3546 55.8056 29.0869 55.4478 29.0869Z" fill="white"/>
<path d="M64.6593 38.6338H60.3218C59.9641 38.6338 59.6958 38.9015 59.6958 39.2584V43.5411C59.6958 43.898 59.9641 44.1657 60.3218 44.1657H64.6593C65.017 44.1657 65.2853 43.898 65.2853 43.5411V39.2137C65.33 38.9907 65.017 38.6338 64.6593 38.6338Z" fill="white"/>
<path d="M55.4478 38.6338H51.1104C50.7527 38.6338 50.4844 38.9015 50.4844 39.2584V43.5411C50.4844 43.898 50.7527 44.1657 51.1104 44.1657H55.4478C55.8056 44.1657 56.0739 43.898 56.0739 43.5411V39.2137C56.1186 38.9907 55.8056 38.6338 55.4478 38.6338Z" fill="white"/>
<path d="M64.6593 48.627H60.3218C59.9641 48.627 59.6958 48.8946 59.6958 49.2515V53.5343C59.6958 53.8912 59.9641 54.1589 60.3218 54.1589H64.6593C65.017 54.1589 65.2853 53.8912 65.2853 53.5343V49.2069C65.33 48.8946 65.017 48.627 64.6593 48.627Z" fill="white"/>
<path d="M55.4478 48.627H51.1104C50.7527 48.627 50.4844 48.8946 50.4844 49.2515V53.5343C50.4844 53.8912 50.7527 54.1589 51.1104 54.1589H55.4478C55.8056 54.1589 56.0739 53.8912 56.0739 53.5343V49.2515C56.1186 48.8946 55.8056 48.627 55.4478 48.627Z" fill="white"/>
</g>
<defs>
<clipPath id="clip0_1146_3501">
<rect width="80" height="80" fill="white"/>
</clipPath>
</defs>
</svg>
