<svg width="80" height="80" viewBox="0 0 80 80" fill="none" xmlns="http://www.w3.org/2000/svg">
<path d="M74.3378 36.8127H68.5642V29.2158C68.5642 26.9151 66.2634 25.0918 63.9626 25.0918C63.0076 25.0918 62.096 25.3523 61.6619 25.8732V22.7476C61.6619 20.4468 59.7952 18.667 57.4944 18.667C55.1936 18.667 53.4138 20.4468 53.4138 22.7476V36.8127H25.7611V22.8778C25.7611 20.5771 23.9378 18.667 21.637 18.667C19.3363 18.667 17.513 20.5771 17.513 22.8778V26.3073C16.6448 25.7864 15.6029 25.5259 14.6479 25.5259H14.6045C12.3037 25.5259 10.5673 27.3492 10.5673 29.6499V36.8127H5.70526C4.01224 36.8127 2.6665 38.1585 2.6665 39.8515C2.6665 41.5445 4.05565 42.8902 5.70526 42.8902H10.6107V50.7042C10.6107 53.005 12.3471 54.6112 14.6479 54.6112C15.6029 54.6112 16.6448 54.5678 17.513 54.0468V57.129C17.513 59.4298 19.3797 61.2096 21.6805 61.2096C23.9812 61.2096 25.7611 59.4298 25.7611 57.129V42.8902H53.4572V57.0422C53.4572 59.343 55.2805 61.253 57.5812 61.253C59.882 61.253 61.7053 59.343 61.7053 57.0422V53.6127C62.5735 54.1337 63.051 54.1771 64.006 54.1771H64.0494C66.3502 54.1771 68.651 52.5709 68.651 50.2267V42.8902H74.2944C75.9874 42.8902 77.3332 41.5445 77.3332 39.8515C77.3332 38.1585 76.0309 36.8127 74.3378 36.8127ZM21.3766 61.1662C21.3332 61.1662 21.3332 61.1662 21.3766 61.1662V61.1662ZM57.2774 18.667C57.3208 18.667 57.3208 18.667 57.2774 18.667V18.667Z" fill="white"/>
</svg>
