<svg width="80" height="80" viewBox="0 0 80 80" fill="none" xmlns="http://www.w3.org/2000/svg">
<path d="M63.4456 70.0651L62.6141 69.0041L61.4129 67.9431L60.3041 67.0204L57.9018 65.5904L56.7007 64.9445L55.6381 64.6677L54.2984 64.2064L53.2358 64.068L51.8037 63.7912H51.5727L51.2031 63.5144L50.3715 62.8225L49.9557 62.315L49.6785 61.254L49.1704 60.3314L48.9394 59.7317L48.5698 59.0858L48.3388 57.9325L47.9692 57.2867L47.461 56.3179L47.23 55.1185L47.0914 53.1349V51.6586L47.3224 50.8744L47.5996 49.0292L48.0154 47.7375L48.616 44.8773L49.1242 43.4011L49.2628 41.9249L49.6785 40.5871L49.7709 38.788L49.8633 37.5885L50.0019 36.6659L50.5563 35.0052L52.0346 32.145L52.7738 30.7149L53.8826 28.3622L54.7141 26.2402L55.3147 23.7491L55.8691 21.7193L56.2387 20.2431L56.3773 19.0437L56.6083 18.121L56.7007 17.4752V17.1062L56.4235 16.5064L55.9153 16.1374H55.5457L54.9913 15.999L53.051 15.2148L51.2955 14.6151L48.154 13.554L45.8903 12.9543L44.6891 12.7237L43.3494 12.2623L42.6102 12.0317L42.1944 11.7549L41.7786 11.6165L41.3628 11.1552L40.8547 10.5093L40.2541 8.47956L39.9769 7.41854L39.4687 6.58817L39.5149 5.98846L39.3763 5.29649L39.1453 4.65065L39.0529 4.51225V4.05094L38.9605 3.68189L38.8219 3.58962L38.9143 3.12831L38.8219 2.66699H38.3138L38.1752 2.94378H37.8056V3.22057L37.7132 3.68189L37.5746 3.77415L37.4822 4.46612L37.3898 5.11196L37.1588 5.48101L36.9278 5.94233L36.7892 7.74146L36.512 8.29504L36.3734 9.21767L36.281 11.2475L36.1886 11.6165L36.0962 11.9856L36.0038 12.2162H35.7267L35.4495 12.5391L34.7103 13.0005L32.539 13.6924L28.9355 14.6612L27.6882 15.1686L25.6092 16.0913L22.8373 17.2445L22.283 17.3829L21.7286 17.6136L21.2204 17.7981L20.8508 18.3978V18.9975L20.9894 19.9202L21.128 20.4276L21.4052 21.8577L22.0058 24.0259L23.2069 27.2551L24.4543 29.9768L25.0549 31.1301L26.1636 32.9293L27.7806 35.4204L28.5197 36.8966L29.0279 37.7269L29.4437 38.788L29.8133 40.6794L30.0905 41.7404L30.2291 42.4324L30.5987 43.4934L31.2916 45.3848L31.6612 46.8148L32.077 48.0143L32.3542 48.7062L32.77 49.9979L33.001 51.7048L33.2782 53.3655L33.3706 54.8417L33.2782 55.8105L32.6776 56.7793L32.308 57.7019L32.0308 58.3477L31.7998 60.193V60.562L31.5226 60.7927L31.0144 61.5769L30.7834 62.1766L30.8758 62.4534L30.4601 62.7302L30.3215 62.9609V63.0993L29.4899 63.007L28.5659 63.2838L28.3349 63.376L28.0577 63.4683L27.8268 63.6067L27.7344 63.8835L27.8268 64.0219L27.9192 64.1142V64.2526L27.411 64.3909L26.1636 64.6216L24.2233 65.2674L20.8508 66.6975L19.1415 67.8969L17.2474 69.6038L16.2772 70.5726L16 71.1723V71.8181L16.0924 72.464L16.3234 73.0637L16.4158 73.7556L16.5544 74.5399L17.0626 75.0473L17.5707 75.3241H17.9865L18.8181 75.8316L19.3725 76.0622L20.2964 76.6619L20.9894 76.8003H25.1935L26.9028 76.5235L29.3051 75.8316L31.7536 75.0473L34.2021 74.2631L36.6044 73.7556L38.6371 73.4789L41.0857 72.8791L41.8248 72.7407H43.1184L43.6266 72.5101L44.0423 72.6023L44.7815 72.6946L45.6131 72.9253L46.1213 73.0175L48.385 74.0786L49.3551 74.5399L51.6651 75.4625L52.9124 75.8316L54.3446 76.2929H55.2685L55.5457 76.1545L56.3773 76.4313L56.9317 76.5235L57.8556 76.6158L59.6574 76.339L60.5813 76.0622L61.3205 75.8316L61.8287 75.7393L62.6602 75.2318L63.1684 74.586L63.538 73.8018L63.8152 73.2021L63.9076 72.6023L64 71.2645L63.4456 70.0651ZM38.2676 7.04949L38.36 6.81883L38.4062 6.26525L38.6371 6.40364V8.06438L38.5448 7.83372L38.3138 7.37241L38.2676 7.04949ZM45.4283 32.3296L45.1973 32.7909L44.9663 33.0215L43.9038 32.9293L43.5342 32.7909L43.026 32.5141L42.4716 31.8682L42.333 31.4069L42.4716 30.5766L42.7026 29.4233L42.795 28.5929L43.1646 27.9471L43.3032 27.1628L43.3956 26.3786L43.488 26.2863H43.7652L44.0423 26.1941L44.2733 25.9173V25.4098L44.4119 25.1792L44.5505 24.8101L44.6429 24.3488L44.8739 23.5646V22.9187L44.7815 22.5497H44.5043L44.2733 22.6881V20.4276L44.1809 19.5973L43.5804 18.6746L42.8412 17.7059L41.64 16.8755L40.4389 16.5064L39.2377 16.4142L38.4524 16.5987L37.3436 16.8294L36.4658 17.4291L35.7729 18.0749L34.8489 19.0437L34.5717 19.6895L34.4331 21.1657V21.6732L34.3869 22.319L34.4793 23.1494V23.2878H34.3869L34.1559 23.4262L34.0635 23.6568L34.1559 24.2565L34.2945 24.5333L34.3869 25.133L34.6641 25.5021L34.8951 25.8711V26.2402L35.0337 26.6092H35.3109L35.5419 26.517L35.7729 27.8087L36.1424 28.3161L36.3734 28.5468L36.4658 29.3771L36.5582 31.1763V32.0066L36.281 32.6525L35.8653 33.0215L35.5419 33.2522C35.5419 33.2522 35.0337 33.3444 34.9875 33.3906C34.8951 33.3906 34.5717 33.2983 34.5717 33.2983H33.9249L33.6939 32.7909L33.3243 32.145L32.8162 31.4531L32.077 30.6688L31.2916 29.9307L30.4601 29.0081L29.7209 28.3161L29.2127 27.3473L28.5197 25.6405L27.5958 24.072L26.5332 22.2729L26.025 21.4425V21.2119L26.3022 20.8428C26.3022 20.8428 27.2724 20.0124 27.2724 19.9202C27.3648 19.8279 28.7507 18.8592 28.8431 18.7669C28.9355 18.7669 30.0443 18.1672 30.0443 18.1672L31.1068 17.4752L33.2782 16.1835L34.8489 15.3993L36.3272 14.7996C36.3272 14.7996 36.9278 14.5228 37.0202 14.5228C37.1126 14.5228 37.5746 14.246 37.5746 14.246L38.1752 13.7847L38.5448 13.5079L38.9143 13.0005H39.0067L39.1453 13.2311L39.4225 13.3234H40.3465L40.5775 13.6924L41.409 13.9692L42.3792 14.3383L44.2733 15.1225L45.3359 15.4916L48.1078 16.9216L50.0019 17.8904L51.2031 18.6746L51.5727 19.0437L52.0808 19.5511L52.2194 19.9202V20.2892L52.0808 20.7967L51.8037 21.4425L51.3879 22.3651L50.6949 23.8414L49.8633 26.1941L49.1242 27.7164L48.7546 28.2238L47.6458 29.5617L46.5371 31.0379L45.4283 32.3296Z" fill="white"/>
</svg>
