<svg width="80" height="80" viewBox="0 0 80 80" fill="none" xmlns="http://www.w3.org/2000/svg">
<path d="M66.2098 23.3744C66.8386 14.8128 62.1758 8.51006 53.9507 6.19888C44.9919 3.73009 35.9284 3.57249 26.9172 6.04128C16.6489 8.93006 11.7765 17.754 14.7105 27.944C15.3917 30.3075 16.3345 32.6187 17.6445 34.6671C19.2161 37.1359 19.3733 39.0267 17.7493 41.7055C12.2481 50.7922 13.2437 60.0366 18.7973 68.8605C21.312 72.8525 24.9792 75.2685 29.642 76.2665H51.3839C63.4862 73.7453 70.1918 55.5718 63.5386 43.6491C61.443 39.9199 61.1286 37.1359 63.4338 33.3543C65.1098 30.5179 65.9478 26.7888 66.2098 23.3744ZM38.2859 65.3301L29.3272 56.8738L31.7372 54.3526L37.7619 60.0254L49.5499 43.4803L52.3791 45.4763L38.2859 65.3301ZM52.5359 29.5611C51.6975 30.3491 49.7067 30.7167 48.5543 30.3491C42.9487 28.5631 37.4999 28.4583 31.9468 30.3491C29.2748 31.2419 27.3888 30.0863 26.4456 27.5652C25.8168 25.9896 25.5024 24.256 25.2932 23.5208C25.3456 18.6884 27.2316 15.9572 31.1608 15.6948C37.0807 15.3272 43.0535 15.3796 48.9735 15.6424C52.0647 15.7476 54.5266 17.5332 55.2602 20.79C55.8366 24.0988 54.9982 27.25 52.5359 29.5611Z" fill="white"/>
</svg>
