<svg width="154" height="30" viewBox="0 0 154 30" fill="none" xmlns="http://www.w3.org/2000/svg">
<mask id="mask0_2055_6072" style="mask-type:luminance" maskUnits="userSpaceOnUse" x="0" y="0" width="154" height="30">
<path d="M153.12 0V29.9954H0V0H153.12Z" fill="white"/>
</mask>
<g mask="url(#mask0_2055_6072)">
<path d="M108.382 28.6981H107.202L107.659 27.5153C107.746 27.2998 107.764 27.2311 107.801 27.121C107.837 27.2311 107.865 27.3228 107.938 27.5107L108.382 28.6981ZM107.106 28.9685H108.478L108.839 29.9404H109.159L107.943 26.7314H107.65L106.429 29.9404H106.745L107.106 28.9685ZM101.572 26.9881H102.386C102.586 26.9722 102.786 27.002 102.972 27.0752C103.075 27.1209 103.162 27.1972 103.221 27.2939C103.28 27.3906 103.308 27.5031 103.301 27.6162C103.307 27.7298 103.279 27.8427 103.221 27.9401C103.162 28.0374 103.075 28.1147 102.972 28.1617C102.785 28.2331 102.585 28.2628 102.386 28.2488H101.568L101.572 26.9881ZM102.437 28.5147C102.705 28.5347 102.973 28.4775 103.21 28.3496C103.331 28.2706 103.431 28.1623 103.501 28.0346C103.57 27.9069 103.606 27.7638 103.606 27.6184C103.606 27.4731 103.57 27.33 103.501 27.2023C103.431 27.0745 103.331 26.9662 103.21 26.8872C102.973 26.7594 102.705 26.7022 102.437 26.7222H101.257V29.9312H101.559V28.5147H102.437ZM97.5938 27.1394C97.4649 26.9785 97.3 26.8503 97.1125 26.7651C96.9251 26.6799 96.7202 26.64 96.5146 26.6489C95.8789 26.6489 95.4353 27.0156 95.4353 27.5153C95.4353 28.0929 95.8469 28.2534 96.3225 28.3542L96.7249 28.4459C97.1822 28.5468 97.4109 28.6981 97.4109 29.0465C97.4109 29.3949 97.0953 29.7204 96.5466 29.7204C96.3317 29.7327 96.1185 29.6769 95.9371 29.5609C95.7557 29.4448 95.6153 29.2745 95.5359 29.074L95.2707 29.2482C95.3863 29.4819 95.5682 29.6762 95.7936 29.8066C96.0189 29.9371 96.2777 29.998 96.5374 29.9817C97.2737 29.9817 97.7264 29.5783 97.7264 29.0281C97.7264 28.478 97.3834 28.29 96.8118 28.1663L96.3819 28.07C95.9612 27.9783 95.7371 27.85 95.7371 27.4924C95.7371 27.1348 96.0572 26.9193 96.4917 26.9193C96.6577 26.9149 96.8222 26.951 96.9712 27.0244C97.1201 27.0979 97.2491 27.2066 97.3469 27.3411L97.5938 27.1394ZM86.4812 27.8454C86.3315 27.7011 86.2389 27.5073 86.2206 27.2998C86.2195 27.2442 86.2304 27.1889 86.2524 27.1379C86.2745 27.0868 86.3072 27.041 86.3483 27.0036C86.3895 26.9663 86.4382 26.9382 86.4911 26.9213C86.544 26.9044 86.5999 26.899 86.655 26.9056C86.7115 26.9009 86.7682 26.9084 86.8216 26.9276C86.8749 26.9467 86.9235 26.977 86.9642 27.0165C87.0049 27.056 87.0367 27.1038 87.0575 27.1566C87.0784 27.2094 87.0877 27.266 87.0849 27.3228C87.0703 27.4659 87.0159 27.602 86.9277 27.7155C86.8395 27.829 86.7213 27.9153 86.5864 27.9646C86.5864 27.9646 86.5361 27.905 86.4904 27.8408M87.2815 29.2665C87.2021 29.4044 87.0882 29.5192 86.9511 29.5996C86.814 29.68 86.6584 29.7232 86.4995 29.7249C86.4116 29.7306 86.3235 29.7182 86.2405 29.6886C86.1575 29.6589 86.0814 29.6127 86.0168 29.5527C85.9522 29.4926 85.9005 29.42 85.8648 29.3393C85.829 29.2586 85.8101 29.1714 85.809 29.0831C85.809 28.6797 86.1291 28.4826 86.4767 28.29L87.2815 29.2665ZM87.844 29.9221H88.2099L87.6108 29.2298C87.7382 28.9888 87.8262 28.7287 87.8715 28.4597L87.6154 28.3863C87.5776 28.5988 87.5163 28.8064 87.4324 29.0052L86.7328 28.1571C86.912 28.0876 87.0683 27.9692 87.1839 27.8153C87.2995 27.6613 87.3697 27.478 87.3867 27.2861C87.3848 27.1958 87.364 27.1069 87.3258 27.0251C87.2875 26.9433 87.2325 26.8705 87.1645 26.8113C87.0964 26.7521 87.0167 26.7079 86.9305 26.6815C86.8443 26.6551 86.7536 26.6471 86.6642 26.658C86.5733 26.6499 86.4817 26.6603 86.395 26.6888C86.3083 26.7173 86.2282 26.7632 86.1598 26.8236C86.0913 26.8841 86.0359 26.9579 85.9968 27.0406C85.9577 27.1232 85.9358 27.213 85.9325 27.3044C85.948 27.5543 86.0499 27.791 86.2206 27.9737L86.3258 28.0929C85.8684 28.3267 85.5117 28.5834 85.5117 29.1106C85.5182 29.2311 85.5483 29.3491 85.6003 29.4579C85.6523 29.5667 85.7252 29.6641 85.8148 29.7446C85.9045 29.8251 86.0091 29.8871 86.1226 29.927C86.2362 29.9669 86.3565 29.9839 86.4767 29.9771C86.6675 29.9816 86.8565 29.9378 87.026 29.8497C87.1954 29.7615 87.34 29.6319 87.4462 29.4728L87.844 29.9221ZM77.9982 27.1348C77.8702 26.974 77.7062 26.8458 77.5194 26.7605C77.3327 26.6753 77.1285 26.6355 76.9235 26.6443C76.2833 26.6443 75.8397 27.011 75.8397 27.5107C75.8397 28.0883 76.2513 28.2488 76.7269 28.3496L77.1293 28.4413C77.5866 28.5422 77.8153 28.6935 77.8153 29.0419C77.8153 29.3903 77.4997 29.7158 76.951 29.7158C76.7361 29.7281 76.5229 29.6723 76.3415 29.5563C76.16 29.4402 76.0197 29.2699 75.9403 29.0694L75.6751 29.2436C75.791 29.4781 75.9736 29.6728 76.1999 29.8034C76.4261 29.9339 76.6859 29.9944 76.9464 29.9771C77.6826 29.9771 78.1308 29.5737 78.1308 29.0235C78.1308 28.4734 77.7924 28.2855 77.2162 28.1617L76.7863 28.0654C76.361 27.9737 76.1369 27.8454 76.1369 27.4878C76.1369 27.1302 76.4571 26.9147 76.8915 26.9147C77.0575 26.9103 77.222 26.9464 77.371 27.0199C77.52 27.0933 77.6489 27.202 77.7467 27.3365L77.9982 27.1348ZM72.3367 27.1348C72.2078 26.9739 72.043 26.8457 71.8555 26.7605C71.668 26.6753 71.4631 26.6355 71.2575 26.6443C70.6218 26.6443 70.1782 27.011 70.1782 27.5107C70.1782 28.0883 70.5898 28.2488 71.0654 28.3496L71.4678 28.4413C71.9251 28.5422 72.1492 28.6935 72.1492 29.0419C72.1492 29.3903 71.8383 29.7158 71.2849 29.7158C71.0707 29.7278 70.8582 29.6718 70.6775 29.5558C70.4969 29.4397 70.3574 29.2695 70.2788 29.0694L70.0136 29.2436C70.1293 29.4773 70.3112 29.6716 70.5365 29.8021C70.7619 29.9325 71.0206 29.9934 71.2803 29.9771C72.0166 29.9771 72.4693 29.5737 72.4693 29.0235C72.4693 28.4734 72.1264 28.2855 71.5547 28.1617L71.1249 28.0654C70.6996 27.9737 70.4801 27.8454 70.4801 27.4878C70.4801 27.1302 70.8002 26.9147 71.2346 26.9147C71.4006 26.9103 71.5651 26.9464 71.7141 27.0199C71.8631 27.0933 71.992 27.202 72.0898 27.3365L72.3367 27.1348ZM66.9222 29.6562H65.0198V28.423H66.657V28.1525H65.0198V26.9881H66.8262V26.7222H64.7226V29.9312H66.9222V29.6562ZM58.8599 26.7039H58.5626V29.9129H58.8599V27.1623C58.9392 27.3221 59.0309 27.4754 59.1343 27.6207L60.7623 29.9588H61.0595V26.7497H60.7623V29.5003C60.6831 29.3423 60.5945 29.1893 60.497 29.0419L58.8599 26.7039ZM52.8783 26.9698H53.9027V29.9221H54.1999V26.9881H55.2289V26.7222H52.8783V26.9698ZM49.5445 26.7039H49.2473V29.9129H49.5445V26.7039ZM44.2169 29.9129V28.423H45.8129V28.1617H44.2169V26.9881H45.9821V26.7222H43.9014V29.9312L44.2169 29.9129Z" fill="white"/>
<path d="M152.009 4.511V0.385086H136.461V21.5465H152.009V17.3747H141.107V12.7903H150.299V8.66443H141.107V4.511H152.009ZM124.557 21.5465L127.941 9.74633C128.563 7.62836 129.217 4.33221 129.217 4.33221C129.121 5.57457 128.81 11.6672 128.81 14.6974V21.5465H133.282V0.371333H126.574L123.688 10.8649C123.016 13.1663 122.559 15.9994 122.559 15.9994H122.527C122.527 15.9994 122.028 13.1663 121.411 10.8649L118.667 0.371333H111.67V21.5465H116.156V14.6287C116.156 11.768 115.937 5.41412 115.877 4.29554C115.877 4.29554 116.495 7.18826 116.993 9.15037L120.098 21.5281L124.557 21.5465ZM93.7208 10.9566C93.7208 6.53729 95.7101 3.86002 99.2496 3.86002C102.789 3.86002 104.778 6.53729 104.778 10.9566C104.778 15.3759 102.821 17.9615 99.2359 17.9615C95.6506 17.9615 93.7071 15.3759 93.7071 10.9566M89.0197 10.9566C89.0334 17.4205 92.8336 21.9178 99.2359 21.9178C105.757 21.9178 109.452 17.4343 109.452 10.9566C109.452 4.47891 105.492 0 99.2359 0C92.9799 0 89.0197 4.45141 89.0197 10.9566ZM84.067 15.0825C83.1981 16.985 81.6479 17.9798 79.4116 17.9798C75.8721 17.9798 73.9239 15.3943 73.9239 10.9749C73.9239 6.55562 75.9087 3.87836 79.4116 3.87836C81.6982 3.87836 83.2942 4.99694 84.1631 7.08741L88.073 5.43704C86.8154 2.55348 84.0533 0 79.3613 0C73.2426 0 69.2686 4.45141 69.2686 10.9566C69.2686 17.4618 73.0596 21.9178 79.3613 21.9178C83.6189 21.9178 86.349 20.0153 87.9313 16.9025L84.067 15.0825Z" fill="white"/>
<path d="M19.4221 21.6473H18.5532L14.9221 8.0547C14.5426 6.6794 13.596 3.11736 13.2164 1.55868C12.846 3.07151 11.8902 6.72066 11.5426 8.0868L7.97108 21.6473H7.10677L7.07476 21.5465L1.07031 0.375916H1.86145L1.89347 0.481356L6.28819 15.9719C6.39337 16.3295 6.51227 16.7329 6.63117 17.1546C6.96958 18.3099 7.33999 19.5843 7.54578 20.4325C7.81102 19.323 8.30491 17.416 8.69362 15.9719L12.8094 0.385084H13.6463L17.8352 16.004C18.2605 17.5489 18.7498 19.456 18.9922 20.4691C19.2574 19.3964 19.7696 17.5031 20.1766 16.0636L24.3244 0.375916H25.0881L19.4221 21.6473ZM40.0009 21.6473H26.7618V0.375916H39.3606V1.10024H27.5164V10.2689H38.2631V11.0024H27.5164V20.923H40.0009V21.6473ZM55.0554 21.6473H42.3652V0.375916H43.1151V20.923H55.0554V21.6473ZM69.4332 21.6473H56.7429V0.375916H57.4974V20.923H69.4332V21.6473Z" fill="white"/>
<path d="M1.02441 26.933H39.8727" stroke="white" stroke-width="0.75"/>
<path d="M1.02441 27.3686H39.8727" stroke="white" stroke-width="0.25"/>
<path d="M112.045 26.933H152.096" stroke="white" stroke-width="0.75"/>
<path d="M112.045 27.3686H152.096" stroke="white" stroke-width="0.25"/>
</g>
</svg>
